<mxfile host="app.diagrams.net" agent="Mozilla/5.0 (Macintosh; Intel Mac OS X 10_15_7) AppleWebKit/537.36 (KHTML, like Gecko) Chrome/129.0.0.0 Safari/537.36" version="24.7.14">
  <diagram name="第 1 页" id="ejXDqBIMoetH6MXR90Sh">
    <mxGraphModel dx="1270" dy="677" grid="1" gridSize="10" guides="1" tooltips="1" connect="1" arrows="1" fold="1" page="1" pageScale="1" pageWidth="827" pageHeight="1169" math="0" shadow="0">
      <root>
        <mxCell id="0" />
        <mxCell id="1" parent="0" />
        <mxCell id="VWa7LxIpOlF0HXt5NG7T-1" value="Horizontal Container" style="swimlane;horizontal=0;whiteSpace=wrap;html=1;" parent="1" vertex="1">
          <mxGeometry x="147" y="150" width="2483" height="290" as="geometry" />
        </mxCell>
        <mxCell id="VWa7LxIpOlF0HXt5NG7T-21" value="&lt;p style=&quot;margin: 0px; font-variant-numeric: normal; font-variant-east-asian: normal; font-variant-alternates: normal; font-size-adjust: none; font-kerning: auto; font-optical-sizing: auto; font-feature-settings: normal; font-variation-settings: normal; font-variant-position: normal; font-stretch: normal; font-size: 14px; line-height: normal; font-family: Menlo; color: rgb(15, 104, 160); background-color: rgb(255, 255, 255); text-align: start;&quot; class=&quot;p1&quot;&gt;&lt;b&gt;AIBroadViewFinishWithResult&lt;/b&gt;&lt;/p&gt;" style="rounded=0;whiteSpace=wrap;html=1;" parent="VWa7LxIpOlF0HXt5NG7T-1" vertex="1">
          <mxGeometry x="2063" y="60" width="120" height="60" as="geometry" />
        </mxCell>
        <mxCell id="VWa7LxIpOlF0HXt5NG7T-4" value="&lt;p style=&quot;margin: 0px; font-variant-numeric: normal; font-variant-east-asian: normal; font-variant-alternates: normal; font-size-adjust: none; font-kerning: auto; font-optical-sizing: auto; font-feature-settings: normal; font-variation-settings: normal; font-variant-position: normal; font-stretch: normal; font-size: 14px; line-height: normal; font-family: Menlo; color: rgb(15, 104, 160); background-color: rgb(255, 255, 255); text-align: start;&quot; class=&quot;p1&quot;&gt;&lt;b&gt;getLiveRobot&lt;/b&gt;&lt;/p&gt;" style="rounded=0;whiteSpace=wrap;html=1;" parent="VWa7LxIpOlF0HXt5NG7T-1" vertex="1">
          <mxGeometry x="59" y="50" width="120" height="60" as="geometry" />
        </mxCell>
        <mxCell id="VWa7LxIpOlF0HXt5NG7T-6" value="&lt;p style=&quot;margin: 0px; font-variant-numeric: normal; font-variant-east-asian: normal; font-variant-alternates: normal; font-size-adjust: none; font-kerning: auto; font-optical-sizing: auto; font-feature-settings: normal; font-variation-settings: normal; font-variant-position: normal; font-stretch: normal; font-size: 14px; line-height: normal; font-family: Menlo; color: rgb(50, 109, 116); background-color: rgb(255, 255, 255); text-align: start;&quot; class=&quot;p1&quot;&gt;&lt;b&gt;beginProcessWithDataArray&lt;/b&gt;&lt;/p&gt;" style="rounded=0;whiteSpace=wrap;html=1;" parent="VWa7LxIpOlF0HXt5NG7T-1" vertex="1">
          <mxGeometry x="249" y="50" width="120" height="60" as="geometry" />
        </mxCell>
        <mxCell id="VWa7LxIpOlF0HXt5NG7T-5" value="&lt;p style=&quot;margin: 0px; font-variant-numeric: normal; font-variant-east-asian: normal; font-variant-alternates: normal; font-size-adjust: none; font-kerning: auto; font-optical-sizing: auto; font-feature-settings: normal; font-variation-settings: normal; font-variant-position: normal; font-stretch: normal; font-size: 14px; line-height: normal; font-family: Menlo; color: rgb(50, 109, 116); background-color: rgb(255, 255, 255); text-align: start;&quot; class=&quot;p1&quot;&gt;&lt;b&gt;initRobotWithCallback&lt;/b&gt;&lt;/p&gt;" style="rounded=0;whiteSpace=wrap;html=1;" parent="VWa7LxIpOlF0HXt5NG7T-1" vertex="1">
          <mxGeometry x="53" y="230" width="120" height="60" as="geometry" />
        </mxCell>
        <mxCell id="VWa7LxIpOlF0HXt5NG7T-23" value="&lt;p style=&quot;margin: 0px; font-variant-numeric: normal; font-variant-east-asian: normal; font-variant-alternates: normal; font-size-adjust: none; font-kerning: auto; font-optical-sizing: auto; font-feature-settings: normal; font-variation-settings: normal; font-variant-position: normal; font-stretch: normal; font-size: 14px; line-height: normal; font-family: Menlo; color: rgb(50, 109, 116); background-color: rgb(255, 255, 255); text-align: start;&quot; class=&quot;p1&quot;&gt;&lt;b&gt;detailDataWithDataArray&lt;/b&gt;&lt;/p&gt;" style="rounded=0;whiteSpace=wrap;html=1;" parent="VWa7LxIpOlF0HXt5NG7T-1" vertex="1">
          <mxGeometry x="1413" y="60" width="120" height="60" as="geometry" />
        </mxCell>
        <mxCell id="VWa7LxIpOlF0HXt5NG7T-2" value="&lt;p style=&quot;margin: 0px; font-variant-numeric: normal; font-variant-east-asian: normal; font-variant-alternates: normal; font-size-adjust: none; font-kerning: auto; font-optical-sizing: auto; font-feature-settings: normal; font-variation-settings: normal; font-variant-position: normal; font-weight: 400; font-stretch: normal; font-size: 14px; line-height: normal; font-family: Menlo; color: rgb(28, 70, 74); background-color: rgb(255, 255, 255); text-align: start;&quot; class=&quot;p1&quot;&gt;&lt;b&gt;BRAISelfRobotManager&lt;/b&gt;&lt;/p&gt;" style="swimlane;horizontal=0;whiteSpace=wrap;html=1;" parent="1" vertex="1">
          <mxGeometry x="147" y="330" width="1633" height="180" as="geometry" />
        </mxCell>
        <mxCell id="VWa7LxIpOlF0HXt5NG7T-7" value="&lt;p style=&quot;margin: 0px; font-variant-numeric: normal; font-variant-east-asian: normal; font-variant-alternates: normal; font-size-adjust: none; font-kerning: auto; font-optical-sizing: auto; font-feature-settings: normal; font-variation-settings: normal; font-variant-position: normal; font-stretch: normal; font-size: 14px; line-height: normal; font-family: Menlo; color: rgb(50, 109, 116); background-color: rgb(255, 255, 255); text-align: start;&quot; class=&quot;p1&quot;&gt;&lt;b&gt;startRecord&lt;/b&gt;&lt;/p&gt;" style="rounded=0;whiteSpace=wrap;html=1;" parent="VWa7LxIpOlF0HXt5NG7T-2" vertex="1">
          <mxGeometry x="453" y="-130" width="120" height="60" as="geometry" />
        </mxCell>
        <mxCell id="VWa7LxIpOlF0HXt5NG7T-10" value="&lt;p style=&quot;margin: 0px; font-variant-numeric: normal; font-variant-east-asian: normal; font-variant-alternates: normal; font-size-adjust: none; font-kerning: auto; font-optical-sizing: auto; font-feature-settings: normal; font-variation-settings: normal; font-variant-position: normal; font-stretch: normal; font-size: 14px; line-height: normal; font-family: Menlo; color: rgb(15, 104, 160); background-color: rgb(255, 255, 255); text-align: start;&quot; class=&quot;p1&quot;&gt;&lt;b&gt;startRecordNoti&lt;/b&gt;&lt;/p&gt;" style="rounded=0;whiteSpace=wrap;html=1;" parent="VWa7LxIpOlF0HXt5NG7T-2" vertex="1">
          <mxGeometry x="673" y="-130" width="120" height="60" as="geometry" />
        </mxCell>
        <mxCell id="VWa7LxIpOlF0HXt5NG7T-8" value="&lt;p style=&quot;margin: 0px; font-variant-numeric: normal; font-variant-east-asian: normal; font-variant-alternates: normal; font-size-adjust: none; font-kerning: auto; font-optical-sizing: auto; font-feature-settings: normal; font-variation-settings: normal; font-variant-position: normal; font-stretch: normal; font-size: 14px; line-height: normal; font-family: Menlo; color: rgb(50, 109, 116); background-color: rgb(255, 255, 255); text-align: start;&quot; class=&quot;p1&quot;&gt;&lt;b&gt;startRecord&lt;/b&gt;&lt;/p&gt;" style="rounded=0;whiteSpace=wrap;html=1;" parent="VWa7LxIpOlF0HXt5NG7T-2" vertex="1">
          <mxGeometry x="423" y="60" width="120" height="60" as="geometry" />
        </mxCell>
        <mxCell id="VWa7LxIpOlF0HXt5NG7T-9" value="&lt;p style=&quot;margin: 0px; font-variant-numeric: normal; font-variant-east-asian: normal; font-variant-alternates: normal; font-size-adjust: none; font-kerning: auto; font-optical-sizing: auto; font-feature-settings: normal; font-variation-settings: normal; font-variant-position: normal; font-stretch: normal; font-size: 14px; line-height: normal; font-family: Menlo; color: rgb(15, 104, 160); background-color: rgb(255, 255, 255); text-align: start;&quot; class=&quot;p1&quot;&gt;&lt;b&gt;anyChatStartRecordCallBack&lt;/b&gt;&lt;/p&gt;" style="rounded=0;whiteSpace=wrap;html=1;" parent="VWa7LxIpOlF0HXt5NG7T-2" vertex="1">
          <mxGeometry x="643" y="60" width="120" height="60" as="geometry" />
        </mxCell>
        <mxCell id="VWa7LxIpOlF0HXt5NG7T-3" value="BRAIBroadViewVH" style="swimlane;horizontal=0;whiteSpace=wrap;html=1;" parent="1" vertex="1">
          <mxGeometry x="147" y="510" width="2493" height="180" as="geometry" />
        </mxCell>
        <mxCell id="VWa7LxIpOlF0HXt5NG7T-11" value="&lt;p style=&quot;margin: 0px; font-variant-numeric: normal; font-variant-east-asian: normal; font-variant-alternates: normal; font-size-adjust: none; font-kerning: auto; font-optical-sizing: auto; font-feature-settings: normal; font-variation-settings: normal; font-variant-position: normal; font-stretch: normal; font-size: 14px; line-height: normal; font-family: Menlo; color: rgb(15, 104, 160); background-color: rgb(255, 255, 255); text-align: start;&quot; class=&quot;p1&quot;&gt;&lt;b&gt;loadTTS2&lt;/b&gt;&lt;/p&gt;" style="rounded=0;whiteSpace=wrap;html=1;" parent="VWa7LxIpOlF0HXt5NG7T-3" vertex="1">
          <mxGeometry x="873" y="60" width="120" height="60" as="geometry" />
        </mxCell>
        <mxCell id="VWa7LxIpOlF0HXt5NG7T-14" value="&lt;p style=&quot;margin: 0px; font-variant-numeric: normal; font-variant-east-asian: normal; font-variant-alternates: normal; font-size-adjust: none; font-kerning: auto; font-optical-sizing: auto; font-feature-settings: normal; font-variation-settings: normal; font-variant-position: normal; font-stretch: normal; font-size: 14px; line-height: normal; font-family: Menlo; color: rgb(15, 104, 160); background-color: rgb(255, 255, 255); text-align: start;&quot; class=&quot;p1&quot;&gt;&lt;b&gt;ttsDwonLoadSuccesssModel&lt;/b&gt;&lt;/p&gt;" style="rounded=0;whiteSpace=wrap;html=1;" parent="VWa7LxIpOlF0HXt5NG7T-3" vertex="1">
          <mxGeometry x="1113" y="60" width="120" height="60" as="geometry" />
        </mxCell>
        <mxCell id="VWa7LxIpOlF0HXt5NG7T-16" value="&lt;p style=&quot;margin: 0px; font-variant-numeric: normal; font-variant-east-asian: normal; font-variant-alternates: normal; font-size-adjust: none; font-kerning: auto; font-optical-sizing: auto; font-feature-settings: normal; font-variation-settings: normal; font-variant-position: normal; font-stretch: normal; font-size: 14px; line-height: normal; font-family: Menlo; color: rgb(15, 104, 160); background-color: rgb(255, 255, 255); text-align: start;&quot; class=&quot;p1&quot;&gt;&lt;b&gt;ttsFinishALLPlay&lt;/b&gt;&lt;/p&gt;" style="rounded=0;whiteSpace=wrap;html=1;" parent="VWa7LxIpOlF0HXt5NG7T-3" vertex="1">
          <mxGeometry x="1333" y="60" width="120" height="60" as="geometry" />
        </mxCell>
        <mxCell id="VWa7LxIpOlF0HXt5NG7T-17" value="&lt;p style=&quot;margin: 0px; font-variant-numeric: normal; font-variant-east-asian: normal; font-variant-alternates: normal; font-size-adjust: none; font-kerning: auto; font-optical-sizing: auto; font-feature-settings: normal; font-variation-settings: normal; font-variant-position: normal; font-stretch: normal; font-size: 14px; line-height: normal; font-family: Menlo; color: rgb(15, 104, 160); background-color: rgb(255, 255, 255); text-align: start;&quot; class=&quot;p1&quot;&gt;&lt;b&gt;checkRouteNow&lt;/b&gt;&lt;/p&gt;" style="rounded=0;whiteSpace=wrap;html=1;" parent="VWa7LxIpOlF0HXt5NG7T-3" vertex="1">
          <mxGeometry x="1513" y="60" width="120" height="60" as="geometry" />
        </mxCell>
        <mxCell id="VWa7LxIpOlF0HXt5NG7T-18" value="&lt;p style=&quot;margin: 0px; font-variant-numeric: normal; font-variant-east-asian: normal; font-variant-alternates: normal; font-size-adjust: none; font-kerning: auto; font-optical-sizing: auto; font-feature-settings: normal; font-variation-settings: normal; font-variant-position: normal; font-stretch: normal; font-size: 14px; line-height: normal; font-family: Menlo; color: rgb(15, 104, 160); background-color: rgb(255, 255, 255); text-align: start;&quot; class=&quot;p1&quot;&gt;&lt;b&gt;startASR&lt;/b&gt;&lt;/p&gt;" style="rounded=0;whiteSpace=wrap;html=1;" parent="VWa7LxIpOlF0HXt5NG7T-3" vertex="1">
          <mxGeometry x="1673" y="60" width="120" height="60" as="geometry" />
        </mxCell>
        <mxCell id="VWa7LxIpOlF0HXt5NG7T-19" value="&lt;p style=&quot;margin: 0px; font-variant-numeric: normal; font-variant-east-asian: normal; font-variant-alternates: normal; font-size-adjust: none; font-kerning: auto; font-optical-sizing: auto; font-feature-settings: normal; font-variation-settings: normal; font-variant-position: normal; font-stretch: normal; font-size: 14px; line-height: normal; font-family: Menlo; color: rgb(15, 104, 160); background-color: rgb(255, 255, 255); text-align: start;&quot; class=&quot;p1&quot;&gt;&lt;b&gt;checkAsrResult&lt;/b&gt;&lt;/p&gt;" style="rounded=0;whiteSpace=wrap;html=1;" parent="VWa7LxIpOlF0HXt5NG7T-3" vertex="1">
          <mxGeometry x="1843" y="60" width="120" height="60" as="geometry" />
        </mxCell>
        <mxCell id="VWa7LxIpOlF0HXt5NG7T-20" value="&lt;p style=&quot;margin: 0px; font-variant-numeric: normal; font-variant-east-asian: normal; font-variant-alternates: normal; font-size-adjust: none; font-kerning: auto; font-optical-sizing: auto; font-feature-settings: normal; font-variation-settings: normal; font-variant-position: normal; font-stretch: normal; font-size: 14px; line-height: normal; font-family: Menlo; color: rgb(15, 104, 160); background-color: rgb(255, 255, 255); text-align: start;&quot; class=&quot;p1&quot;&gt;&lt;b&gt;handleFinishAndNextResult&lt;/b&gt;&lt;/p&gt;" style="rounded=0;whiteSpace=wrap;html=1;" parent="VWa7LxIpOlF0HXt5NG7T-3" vertex="1">
          <mxGeometry x="2063" y="60" width="120" height="60" as="geometry" />
        </mxCell>
        <mxCell id="VWa7LxIpOlF0HXt5NG7T-12" value="&lt;p style=&quot;margin: 0px; font-variant-numeric: normal; font-variant-east-asian: normal; font-variant-alternates: normal; font-size-adjust: none; font-kerning: auto; font-optical-sizing: auto; font-feature-settings: normal; font-variation-settings: normal; font-variant-position: normal; font-weight: 400; font-stretch: normal; font-size: 14px; line-height: normal; font-family: Menlo; color: rgb(28, 70, 74); background-color: rgb(255, 255, 255); text-align: start;&quot; class=&quot;p1&quot;&gt;&lt;b&gt;BRAITTSTool&lt;/b&gt;&lt;/p&gt;" style="swimlane;horizontal=0;whiteSpace=wrap;html=1;" parent="1" vertex="1">
          <mxGeometry x="147" y="690" width="1633" height="180" as="geometry" />
        </mxCell>
        <mxCell id="VWa7LxIpOlF0HXt5NG7T-13" value="&lt;p style=&quot;margin: 0px; font-variant-numeric: normal; font-variant-east-asian: normal; font-variant-alternates: normal; font-size-adjust: none; font-kerning: auto; font-optical-sizing: auto; font-feature-settings: normal; font-variation-settings: normal; font-variant-position: normal; font-stretch: normal; font-size: 14px; line-height: normal; font-family: Menlo; color: rgb(50, 109, 116); background-color: rgb(255, 255, 255); text-align: start;&quot; class=&quot;p1&quot;&gt;&lt;b&gt;startDownLoad&lt;/b&gt;&lt;/p&gt;" style="rounded=0;whiteSpace=wrap;html=1;" parent="VWa7LxIpOlF0HXt5NG7T-12" vertex="1">
          <mxGeometry x="873" y="70" width="120" height="60" as="geometry" />
        </mxCell>
        <mxCell id="VWa7LxIpOlF0HXt5NG7T-15" value="&lt;p style=&quot;margin: 0px; font-variant-numeric: normal; font-variant-east-asian: normal; font-variant-alternates: normal; font-size-adjust: none; font-kerning: auto; font-optical-sizing: auto; font-feature-settings: normal; font-variation-settings: normal; font-variant-position: normal; font-stretch: normal; font-size: 14px; line-height: normal; font-family: Menlo; color: rgb(15, 104, 160); background-color: rgb(255, 255, 255); text-align: start;&quot; class=&quot;p1&quot;&gt;&lt;b&gt;startPlay&lt;/b&gt;&lt;/p&gt;" style="rounded=0;whiteSpace=wrap;html=1;" parent="VWa7LxIpOlF0HXt5NG7T-12" vertex="1">
          <mxGeometry x="1113" y="70" width="120" height="60" as="geometry" />
        </mxCell>
        <mxCell id="VWa7LxIpOlF0HXt5NG7T-22" style="edgeStyle=orthogonalEdgeStyle;rounded=0;orthogonalLoop=1;jettySize=auto;html=1;entryX=0.5;entryY=1;entryDx=0;entryDy=0;" parent="1" source="VWa7LxIpOlF0HXt5NG7T-20" target="VWa7LxIpOlF0HXt5NG7T-21" edge="1">
          <mxGeometry relative="1" as="geometry" />
        </mxCell>
      </root>
    </mxGraphModel>
  </diagram>
</mxfile>
